<svg width="1005" height="81" viewBox="0 0 1005 81" fill="none" xmlns="http://www.w3.org/2000/svg">
<path d="M29.0678 34.4704H23.6228V73.4404H29.0678V52.7854H32.7578V75.4654H38.2028V33.6154H32.7578V47.8804H29.0678V34.4704ZM3.10283 37.5754V64.3504H10.0328C13.7678 64.3504 18.1328 64.2154 21.7778 63.5854L21.1928 58.7254C17.4578 59.3104 13.6778 59.4454 10.0328 59.4454H8.72783V42.4803H19.2578V37.5754H3.10283ZM319.187 56.3854V60.8854H340.157V63.9904H319.412V75.8704H346.907V71.3704H324.902V68.2654H345.647V56.3854H319.187ZM323.687 47.3403C324.002 48.0604 325.037 48.9604 326.837 50.3104C328.727 51.7054 330.662 53.0554 332.507 54.2704L335.657 50.3554C333.497 48.9604 330.887 47.1604 329.447 46.0353C326.927 44.0104 326.297 42.5704 326.297 39.6454V34.6504H320.537V39.7353C320.537 42.4354 319.682 44.4154 317.387 46.3954C315.362 48.1504 313.517 49.5904 310.772 51.5254L314.057 55.6654C316.712 53.7304 318.647 52.1554 320.582 50.5804C322.157 49.3204 323.372 48.1054 323.642 47.3403H323.687ZM339.977 54.4954H345.647V33.6154H339.977V40.3653H332.597V45.1803H339.977V54.4954ZM404.071 65.4304V70.2004H442.411V65.4304H427.336V51.5254H421.801V65.4304H417.796V51.5254H412.261V65.4304H404.071ZM436.111 61.0204C437.101 55.4854 437.326 49.9054 437.326 43.2004V37.1254H408.661V42.0303H431.746V44.6854C431.746 49.9954 431.611 54.6754 430.576 60.3004L436.111 61.0204ZM580.409 37.5754V64.3504H597.554V52.9654H601.784V73.4404H607.184V34.4704H601.784V48.0604H597.554V37.5754H580.409ZM615.644 33.6154H610.244V75.4654H615.644V33.6154ZM592.154 59.5804H585.809V42.3454H592.154V59.5804Z" fill="#14B390"/>
<path d="M55.2199 58.9954C61.8799 58.9954 64.8949 55.3504 64.8949 51.9304V50.4904C64.8949 47.0704 61.8799 43.4254 55.2199 43.4254C48.5599 43.4254 45.5449 47.0253 45.5449 50.4904V51.9304C45.5449 55.3504 48.5599 58.9954 55.2199 58.9954ZM49.3249 65.6554H71.1049V75.6904H75.5599V61.8304H49.3249V65.6554ZM81.4549 44.6854H75.5599V33.7953H71.1499V59.6704H75.5599V48.5554H81.4549V44.6854ZM67.0999 38.1603H57.4249V33.2554H53.0149V38.1603H43.2949V41.8953H67.0999V38.1603ZM55.2199 55.4404C51.5749 55.4404 49.7749 53.5054 49.7749 51.7054V50.7154C49.7749 48.9154 51.5299 46.9804 55.2199 46.9804C58.9099 46.9804 60.6649 48.9154 60.6649 50.7154V51.7054C60.6649 53.5054 58.8649 55.4404 55.2199 55.4404ZM93.2519 68.7604C93.2519 73.1704 98.2919 76.4554 106.212 76.4554C114.132 76.4554 119.172 73.1254 119.172 68.7604V66.9604C119.172 62.5954 114.132 59.2654 106.212 59.2654C98.2919 59.2654 93.2519 62.5504 93.2519 66.9604V68.7604ZM114.627 43.2004H110.397V34.3353H106.167V57.1054H110.397V47.0253H114.627V58.7254H118.902V33.7953H114.627V43.2004ZM94.1519 49.0954C94.3769 49.7704 95.2769 50.7154 96.4019 51.8404C97.6169 53.0554 99.4169 54.7654 101.442 56.4754L104.232 53.5054C102.072 51.7504 100.002 49.9954 98.5619 48.3304C96.4919 45.9454 96.1769 44.1004 96.1769 41.4003V35.9104H91.8569V41.6703C91.8569 44.5054 91.5869 45.9903 89.6519 48.3754C88.4819 49.8604 85.8719 52.2904 83.0819 54.7654L85.9169 57.7804C88.4369 55.5754 91.0019 53.1454 92.1719 51.7954C92.9369 50.9404 93.9269 49.8154 94.1069 49.0954H94.1519ZM114.807 68.4904C114.807 70.6954 111.297 72.8104 106.212 72.8104C101.127 72.8104 97.6169 70.6954 97.6169 68.4454V67.2304C97.6169 65.0254 101.127 62.9104 106.212 62.9104C111.297 62.9104 114.807 65.0254 114.807 67.2304V68.4904ZM159.094 75.2854V33.7953H154.639V75.2854H159.094ZM137.269 36.5854C131.194 36.5854 126.784 40.6804 126.784 48.6454V53.3254C126.784 61.2454 131.194 65.3404 137.269 65.3404C143.344 65.3404 147.754 61.2454 147.754 53.3254V48.6454C147.754 40.7254 143.344 36.5854 137.269 36.5854ZM137.269 61.3354C134.029 61.3354 131.059 59.0404 131.059 52.6954V49.2754C131.059 42.9303 134.029 40.6353 137.269 40.6353C140.464 40.6353 143.479 42.9303 143.479 49.2754V52.6954C143.479 59.0404 140.509 61.3354 137.269 61.3354ZM204.551 48.5554H198.161V33.7953H193.706V75.2854H198.161V52.4254H204.551V48.5554ZM172.646 37.2603H168.191V63.9904H174.086C180.836 63.9904 185.561 63.6754 190.916 62.7304L190.421 58.9054C185.516 59.7154 180.746 60.0754 174.896 60.0754H172.646V37.2603ZM254.868 33.7953H250.503V49.7704H246.588V34.5154H242.223V74.1604H246.588V53.6404H250.503V75.2854H254.868V33.7953ZM224.763 50.4454V41.0403H238.038V37.3053H220.533V54.1804H227.193V61.6504H218.508V65.5204C227.868 65.5204 234.843 65.3854 240.558 65.0254L240.378 61.2454C237.813 61.4254 235.023 61.5154 231.738 61.5604V54.1804H238.173V50.4454H224.763ZM293.53 75.2854V33.7953H289.075V46.6204H280.255V50.5354H289.075V75.2854H293.53ZM271.39 54.4504C271.75 55.3504 272.83 56.6104 274.09 57.9604C275.8 59.8054 277.825 61.8304 280.93 64.7104L283.81 61.6504C281.11 59.2654 279.13 57.3754 277.195 55.2604C274.45 52.2004 273.595 50.3554 273.595 46.8004V36.8104H269.095V46.8004C269.095 49.9954 268.375 52.0204 265.63 55.1254C263.605 57.3754 261.265 59.6704 258.52 62.1004L261.445 65.1154C264.505 62.3254 266.89 59.9404 268.735 57.9154C270.175 56.3404 270.94 55.4404 271.345 54.4504H271.39ZM373.689 64.3504V37.5303H354.069V64.3504H373.689ZM390.879 48.7804H384.489V33.7953H380.034V75.2854H384.489V52.6504H390.879V48.7804ZM358.479 41.3554H369.279V60.5254H358.479V41.3554ZM466.448 75.2854V61.0204H483.233V57.2404H445.163V61.0204H461.948V75.2854H466.448ZM469.193 49.3654C471.623 50.5804 475.088 52.1554 478.778 53.5954L480.488 49.9954C477.158 48.7354 473.468 47.1604 470.588 45.5853C467.528 43.9203 466.403 42.3003 466.403 38.9253V35.2353H461.948V38.9253C461.948 42.3003 460.778 43.9203 457.718 45.5853C454.838 47.1604 451.148 48.7354 447.818 49.9954L449.573 53.6404C453.263 52.2004 456.728 50.6254 459.158 49.4104C462.128 47.9254 463.613 46.7554 464.153 45.7654H464.198C464.783 46.7554 466.223 47.8804 469.193 49.3654ZM520.5 56.6554V33.7953H516.09V56.6554H520.5ZM494.625 58.6804V75.2404H520.5V58.6804H494.625ZM489.09 36.0453V53.7754C501.15 53.7754 506.19 53.5054 512.625 52.6504L512.175 48.9154C505.515 49.7704 500.925 49.9054 493.5 49.9054V36.0453H489.09ZM499.035 62.4604H516.09V71.4604H499.035V62.4604ZM538.372 66.7804C544.087 59.7604 546.022 56.9254 546.697 52.8304H551.377V73.2604H555.427V34.6504H551.377V48.9604H547.012V37.8454H539.092V41.6703H542.962V47.3403C542.962 54.0454 542.287 55.2154 535.357 64.3504L538.372 66.7804ZM563.347 33.7953H559.207V75.2854H563.347V33.7953ZM528.967 63.4054C536.932 54.3604 537.652 52.5154 537.652 44.5953V37.8454H528.022V41.6703H533.512V44.4604C533.512 51.1654 533.152 52.6504 526.042 60.9304L528.967 63.4054ZM655.791 75.5554V71.8654H633.291V67.8154H654.621V56.5204H628.701V60.2104H650.256V64.2154H628.926V75.5554H655.791ZM654.621 54.4504V33.7953H650.211V54.4504H654.621ZM632.031 34.3803C625.281 34.3803 621.726 38.7904 621.726 42.9303V44.7304C621.726 48.8704 625.281 53.2804 632.031 53.2804C638.781 53.2804 642.336 48.8704 642.336 44.7304V42.9303C642.336 38.7904 638.781 34.3803 632.031 34.3803ZM632.031 49.4554C628.161 49.4554 626.001 47.0253 626.001 44.4604V43.2004C626.001 40.6353 628.161 38.2504 632.031 38.2504C635.901 38.2504 638.061 40.6804 638.061 43.2004V44.4604C638.061 47.0253 635.901 49.4554 632.031 49.4554ZM705.163 36.8104H700.753V43.9203H682.213V36.8553H677.803V58.1404H689.233V65.9704H672.448V69.7504H710.518V65.9704H693.688V58.1404H705.163V36.8104ZM682.213 47.7004H700.753V54.3604H682.213V47.7004ZM749.315 33.7953H744.95V47.2954H739.685V34.6504H735.32V73.2604H739.685V51.1654H744.95V75.2854H749.315V33.7953ZM715.34 37.7103V63.9004H719.66C724.79 63.9004 729.065 63.7204 732.71 63.0454L732.215 59.1754C728.48 59.8054 725.015 59.9854 721.595 59.9854H719.795V37.7103H715.34ZM754.362 54.7654V58.5454H792.432V54.7654H754.362ZM764.307 62.3254H759.852V74.8354H787.752V70.9654H764.307V62.3254ZM760.122 35.4153V49.9954H786.987V46.2153H764.532V35.4153H760.122ZM841.219 55.4404V33.7953H836.809V42.7053H828.664V35.6854H824.299V41.6253H813.409V35.6854H809.044V54.0454H828.664V46.5304H836.809V55.4404H841.219ZM836.809 57.4654V62.5504H819.754V57.4654H815.344V75.2854H841.219V57.4654H836.809ZM819.754 71.5054V66.2854H836.809V71.5054H819.754ZM813.409 45.3603H824.299V50.2654H813.409V45.3603ZM880.736 53.0104H857.111V41.0403H880.241V37.2603H852.656V56.7904H864.311V65.9704H847.526V69.7504H885.596V65.9704H868.811V56.7904H880.736V53.0104ZM932.268 34.7403H905.268V48.2854H916.518V51.7504H899.733V55.4404H937.803V51.7504H921.018V48.2854H932.268V34.7403ZM933.528 75.5554V71.9104H909.543V68.8054H932.313V58.5454H904.953V62.1904H927.948V65.2504H905.178V75.5554H933.528ZM927.903 44.5953H909.633V38.4304H927.903V44.5953ZM961.525 52.6054V37.1254H942.85V40.9504H957.115V48.8704H942.985V65.1604H950.095C957.565 65.1604 961.66 64.8454 965.845 64.2154L965.35 60.4354C960.67 61.1104 957.16 61.3354 951.175 61.3354H947.395V52.6054H961.525ZM979.66 48.9604H973.27V33.7953H968.815V75.2854H973.27V52.8304H979.66V48.9604ZM993.708 62.6404V60.7054C993.708 58.3654 994.563 57.1504 996.543 55.2604C999.333 52.6054 1002.12 50.4454 1002.12 46.0353V45.4053C1002.12 40.5004 998.433 37.2154 992.178 37.2154C987.768 37.2154 984.618 38.8354 982.278 41.3104L984.978 44.4154C986.868 42.4354 989.343 41.1754 992.268 41.1754C996.003 41.1754 997.623 43.1554 997.623 45.4504V46.0353C997.623 48.8704 996.498 49.6354 993.258 52.8754C989.973 56.1604 989.118 57.5554 989.118 60.5704V62.6404H993.708ZM988.893 72.0004H994.023V66.8254H988.893V72.0004Z" fill="#191E24"/>
<rect x="13.4854" y="2.99988" width="12" height="12" fill="#14B390"/>
<rect x="589" y="2.99988" width="12" height="12" fill="#14B390"/>
<rect x="413" y="8.99988" width="12" height="12" transform="rotate(-45 413 8.99988)" fill="#14B390"/>
<path d="M331 0.999878L338.794 14.4999H323.206L331 0.999878Z" fill="#14B390"/>
</svg>
