<svg width="194" height="124" viewBox="0 0 194 124" fill="none" xmlns="http://www.w3.org/2000/svg">
<path d="M169.56 123.009C161.768 118.469 160.819 108.232 161.318 103.682H140.57C144.304 117.076 161.453 122.147 169.56 123.009Z" fill="#14B390"/>
<rect width="193.283" height="103.682" rx="26" fill="#14B390"/>
<path d="M48.4958 33.4316H50.9458C52.6538 33.4316 54.5438 33.3476 55.8598 33.1376L55.6638 31.6256C54.3478 31.8076 52.6958 31.9056 51.3658 31.9056H50.2738V26.4316H54.5158V24.9056H48.4958V33.4316ZM53.7878 29.6796H56.9938V36.8056H58.7718V23.7856H56.9938V28.1536H53.7878V29.6796ZM73.0679 33.0536H74.8319V23.7856H73.0679V27.0896H70.9819V28.6016H73.0679V33.0536ZM68.3219 32.2976H66.5439V36.6656H75.0419V35.1536H68.3219V32.2976ZM64.6399 26.1096H67.1739V27.2016C67.1739 27.8876 66.8939 28.4056 66.4039 28.8396C65.8159 29.3576 64.9759 30.0016 64.0939 30.6036L65.1299 31.9056C65.8299 31.4156 66.4459 30.9396 67.0479 30.4636C67.6919 29.9596 68.0839 29.5816 68.1399 29.4136H68.1539C68.2099 29.5536 68.5739 29.8756 69.1619 30.3096C69.6799 30.6876 70.2819 31.1076 70.8839 31.4996L71.8359 30.2396C71.1359 29.7916 70.4359 29.3156 69.8479 28.8676C69.1059 28.2936 68.9379 27.8876 68.9379 27.2016V26.1096H71.3599V24.5976H64.6399V26.1096ZM78.8941 31.4436V32.8156H85.3901V33.5436H78.9641V36.9456H87.4901V35.5736H80.6721V34.8596H87.0981V31.4436H78.8941ZM87.0981 23.7856H85.3341V30.8556H87.0981V28.0416H88.8061V26.5016H87.0981V23.7856ZM81.5261 23.5476H79.7621V24.7516H76.8921V26.2076H84.3541V24.7516H81.5261V23.5476ZM80.6441 30.8136C82.7441 30.8136 83.7381 29.9456 83.7381 28.9096V28.5176C83.7381 27.4816 82.7441 26.6136 80.6441 26.6136C78.5441 26.6136 77.5501 27.4816 77.5501 28.5176V28.9096C77.5501 29.9456 78.5441 30.8136 80.6441 30.8136ZM80.6441 27.9576C81.6241 27.9576 82.0861 28.3076 82.0861 28.6156V28.8116C82.0861 29.1196 81.6241 29.4696 80.6441 29.4696C79.6641 29.4696 79.2021 29.1196 79.2021 28.8116V28.6156C79.2021 28.3076 79.6641 27.9576 80.6441 27.9576ZM93.4003 25.0176V33.3476H98.7343V29.8056H100.05V36.1756H101.73V24.0516H100.05V28.2796H98.7343V25.0176H93.4003ZM104.362 23.7856H102.682V36.8056H104.362V23.7856ZM97.0543 31.8636H95.0803V26.5016H97.0543V31.8636ZM116.713 23.7856H114.935V36.8056H116.713V23.7856ZM111.785 30.3656C110.945 29.4556 110.791 28.8396 110.791 27.7336V24.6956H108.985V27.7336C108.985 28.8816 108.719 29.5676 107.907 30.4636C107.305 31.1216 106.591 31.8216 105.807 32.5216L106.969 33.7256C107.767 32.9836 108.313 32.4516 108.831 31.9056C109.293 31.4296 109.797 30.8556 109.881 30.6036H109.909C110.007 30.8416 110.413 31.3036 110.945 31.8496C111.463 32.3816 112.079 32.9976 112.709 33.5856L113.843 32.3956C113.115 31.7376 112.387 31.0236 111.785 30.3656ZM119.123 26.4176H121.755V27.9016C121.755 29.0636 121.503 29.6516 120.677 30.5756C120.075 31.2336 119.361 31.9336 118.605 32.6056L119.767 33.7956C120.537 33.0816 121.069 32.5496 121.587 32.0036C122.049 31.5276 122.525 30.9816 122.651 30.7156H122.679C122.777 30.9396 123.183 31.4016 123.715 31.9476C124.233 32.4796 124.849 33.0956 125.451 33.6556L126.585 32.4796C125.885 31.8496 125.157 31.1356 124.555 30.4776C123.715 29.5676 123.547 28.9936 123.547 27.9016V26.4176H126.067V24.9056H119.123V26.4176ZM129.455 23.7856H127.677V36.8056H129.455V23.7856ZM141.567 23.7856H139.789V36.8056H141.567V30.0716H143.359V28.5316H141.567V23.7856ZM132.467 34.1176C137.115 31.2756 137.759 30.3376 137.759 27.5096V24.9616H131.767V26.4876H135.981V27.4256C135.981 29.4976 135.743 30.2116 131.529 32.7176L132.467 34.1176ZM46.9827 44.7856H45.2187V51.9676H46.9827V44.7856ZM42.7407 57.9036C43.2727 57.5116 43.8887 56.9936 44.2947 56.6156C44.7427 56.2096 44.9807 55.9716 45.0507 55.7896C45.1347 55.9716 45.4147 56.2796 45.8207 56.6296C46.2967 57.0356 46.9407 57.5536 47.3467 57.8616L48.2987 56.6856C47.8227 56.3356 47.2347 55.8736 46.7447 55.4536C46.0447 54.8516 45.8907 54.5296 45.8907 53.6896V52.5276H44.1547V53.6616C44.1547 54.4596 44.0847 54.7676 43.6087 55.2576C43.3707 55.4956 43.1187 55.7336 42.7407 56.0276C42.3627 55.7336 42.1107 55.4956 41.8727 55.2576C41.3827 54.7536 41.3127 54.4596 41.3127 53.6616V52.5276H39.5767V53.6896C39.5767 54.5156 39.4087 54.8656 38.7367 55.4536C38.2467 55.8736 37.6587 56.3356 37.1827 56.6856L38.1487 57.8896C38.5547 57.5816 39.1847 57.0636 39.6607 56.6576C40.0807 56.3076 40.3887 55.9576 40.4587 55.7896C40.5287 55.9576 40.7387 56.2096 41.1867 56.6156C41.5927 56.9936 42.2087 57.5116 42.7407 57.9036ZM39.9127 51.6176C41.9987 51.6176 43.2447 50.1896 43.2447 48.6356V48.1316C43.2447 46.5776 41.9987 45.1496 39.9127 45.1496C37.8267 45.1496 36.5807 46.5776 36.5807 48.1316V48.6356C36.5807 50.1896 37.8267 51.6176 39.9127 51.6176ZM39.9127 46.6475C40.9627 46.6475 41.5647 47.4596 41.5647 48.1736V48.5936C41.5647 49.3076 40.9627 50.1196 39.9127 50.1196C38.8627 50.1196 38.2607 49.3076 38.2607 48.5936V48.1736C38.2607 47.4596 38.8627 46.6475 39.9127 46.6475ZM59.2348 44.7856H57.4568V57.8056H59.2348V50.8896H61.0268V49.3496H59.2348V44.7856ZM49.5608 54.4316H51.8008C53.5088 54.4316 55.3988 54.3476 56.7148 54.1376L56.5188 52.6256C55.2028 52.8076 53.5508 52.9056 52.2208 52.9056H51.3388V47.4316H55.5808V45.9056H49.5608V54.4316ZM68.281 45.5556H62.177V51.9256H68.281V45.5556ZM66.531 50.4416H63.927V47.0396H66.531V50.4416ZM68.953 46.6196V48.1176H70.703V49.3916H68.953V50.8896H70.703V54.0536H72.453V44.7856H70.703V46.6196H68.953ZM65.943 53.2976H64.165V57.6656H72.663V56.1536H65.943V53.2976ZM80.1132 44.9396H78.7692L77.6492 48.1736H79.5532L80.1132 44.9396ZM83.7 47.7536V50.6236H80.872V52.0796H83.7V55.1456H85.268V52.0796H88.096V50.6236H85.268V47.7536H83.7ZM88.8465 48.3976H90.1905L91.3105 45.1635H89.4065L88.8465 48.3976ZM98.8732 45.8216H97.1232V48.7476H94.3092V45.8216H92.5592V54.4456H98.8732V50.7496H101.099V57.8056H102.877V44.7856H101.099V49.2236H98.8732V45.8216ZM94.3092 50.2596H97.1232V52.9616H94.3092V50.2596ZM114.793 45.1916H106.267V51.1136H114.933V49.6856H108.003V48.8456H114.681V47.4456H108.003V46.6196H114.793V45.1916ZM104.629 52.0376V53.4796H116.557V52.0376H104.629ZM108.073 54.1376H106.309V57.6796H115.157V56.1956H108.073V54.1376ZM118.94 52.4296V53.7596H125.926V54.5296H119.01V57.9176H128.012V56.5876H120.718V55.8036H127.634V52.4296H118.94ZM117.372 50.3156V51.6736H129.3V50.3156H117.372ZM123.336 49.6996C125.898 49.6996 127.592 48.8036 127.592 47.4176V47.0816C127.592 45.6956 125.898 44.7996 123.336 44.7996C120.774 44.7996 119.08 45.6956 119.08 47.0816V47.4176C119.08 48.8036 120.774 49.6996 123.336 49.6996ZM123.336 46.1995C125.184 46.1995 125.842 46.7316 125.842 47.1516V47.3476C125.842 47.7676 125.184 48.2996 123.336 48.2996C121.488 48.2996 120.83 47.7676 120.83 47.3476V47.1516C120.83 46.7316 121.488 46.1995 123.336 46.1995ZM133.614 50.0076V51.3656H138.696V52.3736H135.182V53.7036H142.168V54.5016H135.252V57.9176H144.254V56.5876H136.96V55.7756H143.876V52.3736H140.46V51.3656H145.542V50.0076H133.614ZM135.294 45.0096V49.0976H143.834V47.7256H137.058V45.0096H135.294ZM148.848 50.8616H152.768V45.7936H147.098V47.2916H151.018V49.4196H147.098V54.6976H149.702C151.41 54.6976 153.02 54.6276 154.336 54.4316L154.14 52.9476C152.838 53.1156 151.396 53.1996 150.122 53.1996H148.848V50.8616ZM153.552 50.6516H155.568V57.8056H157.346V44.7856H155.568V49.1116H153.552V50.6516ZM44.2365 73.4576V74.7876H51.2225V75.5436H44.3065V78.9176H53.3085V77.5876H46.0145V76.8176H52.9305V73.4576H49.5145V72.5056H54.5965V71.1476H42.6685V72.5056H47.7505V73.4576H44.2365ZM44.2085 67.4516H47.7505V67.5076C47.7505 67.8996 47.5125 68.2356 46.8685 68.4596C45.8185 68.8236 44.6985 69.1596 43.6765 69.4536L44.1525 70.8116C45.1045 70.5316 46.2805 70.1676 47.2185 69.8596C48.0585 69.5796 48.5485 69.3556 48.6465 69.1596H48.6605C48.7585 69.3556 49.2205 69.5516 50.0605 69.8316C50.9985 70.1396 52.1605 70.5036 53.1125 70.7836L53.5745 69.4536C52.5525 69.1596 51.4465 68.8236 50.3965 68.4596C49.7525 68.2356 49.5145 67.8996 49.5145 67.5076V67.4516H53.0565V66.0796H44.2085V67.4516ZM56.9787 73.4296V74.7596H63.9647V75.5296H57.0487V78.9176H66.0507V77.5876H58.7567V76.8036H65.6727V73.4296H56.9787ZM55.4107 71.3156V72.6736H67.3387V71.3156H55.4107ZM61.3747 70.6996C63.9367 70.6996 65.6307 69.8036 65.6307 68.4176V68.0816C65.6307 66.6956 63.9367 65.7996 61.3747 65.7996C58.8127 65.7996 57.1187 66.6956 57.1187 68.0816V68.4176C57.1187 69.8036 58.8127 70.6996 61.3747 70.6996ZM61.3747 67.1995C63.2227 67.1995 63.8807 67.7316 63.8807 68.1516V68.3476C63.8807 68.7676 63.2227 69.2996 61.3747 69.2996C59.5267 69.2996 58.8687 68.7676 58.8687 68.3476V68.1516C58.8687 67.7316 59.5267 67.1995 61.3747 67.1995ZM73.0948 68.6136H76.7208V68.6976C76.7208 69.2996 76.4548 69.6076 75.6708 69.9436C74.7328 70.3496 73.5708 70.7696 72.4788 71.1196L73.0948 72.5616C74.1448 72.2116 75.1108 71.8476 76.0628 71.4696C76.9028 71.1336 77.4768 70.8116 77.6168 70.5456H77.6308C77.7708 70.8116 78.3308 71.1056 79.1708 71.4416C80.1228 71.8196 81.0888 72.1836 82.1388 72.5336L82.7548 71.1196C81.6628 70.7696 80.5008 70.3496 79.5628 69.9436C78.7788 69.6076 78.5128 69.2996 78.5128 68.6976V68.6136H82.1388V67.1156H78.5128V65.5755H76.7208V67.1156H73.0948V68.6136ZM71.6528 73.2476V74.7456H76.7348V78.8056H78.5128V74.7456H83.5808V73.2476H71.6528ZM94.727 65.7856H92.949V78.8056H94.727V72.0716H96.519V70.5316H94.727V65.7856ZM85.627 76.1176C90.275 73.2756 90.919 72.3376 90.919 69.5096V66.9616H84.927V68.4876H89.141V69.4256C89.141 71.4976 88.903 72.2116 84.689 74.7176L85.627 76.1176ZM105.789 66.0516H104.109V78.1756H105.789V72.0156H106.895V78.8056H108.575V65.7856H106.895V70.4896H105.789V66.0516ZM100.413 75.5856C102.289 75.5856 103.311 74.3116 103.311 73.0516V72.3796C103.311 71.1196 102.289 69.8456 100.413 69.8456C98.5372 69.8456 97.5152 71.1196 97.5152 72.3796V73.0516C97.5152 74.3116 98.5372 75.5856 100.413 75.5856ZM97.0672 67.8856V69.3416H103.465V67.8856H101.253V66.1496H99.5312V67.8856H97.0672ZM100.413 71.2596C101.323 71.2596 101.771 71.9596 101.771 72.4776V72.9536C101.771 73.4716 101.323 74.1716 100.413 74.1716C99.5032 74.1716 99.0552 73.4716 99.0552 72.9536V72.4776C99.0552 71.9596 99.5032 71.2596 100.413 71.2596ZM120.197 73.5416V66.6815H118.433V68.7676H113.253V66.6815H111.489V73.5416H114.961V75.6696H109.879V77.1676H121.807V75.6696H116.725V73.5416H120.197ZM113.253 72.0576V70.2656H118.433V72.0576H113.253ZM129.65 78.1756H131.33V66.0516H129.65V69.8176H127.9V71.3576H129.65V78.1756ZM124.932 69.9576C124.932 71.0776 124.736 71.6236 124.078 72.4636C123.546 73.1356 122.846 73.8916 122.244 74.4796L123.434 75.6276C124.064 75.0116 124.778 74.2136 125.156 73.7796C125.506 73.3736 125.814 72.9396 125.884 72.7436H125.898C125.982 72.9396 126.206 73.2336 126.626 73.7236C127.046 74.2136 127.578 74.7876 128.18 75.4036L129.342 74.3256C128.698 73.6816 128.04 72.9676 127.522 72.3236C126.934 71.5956 126.682 71.0216 126.682 69.9576V66.8216H124.932V69.9576ZM133.976 65.7856H132.296V78.8056H133.976V65.7856ZM135.364 75.6836V77.1676H147.292V75.6836H144.492V72.7436C145.304 72.1696 145.794 71.3436 145.794 70.3356V69.6916C145.794 67.7176 143.876 66.4016 141.328 66.4016C138.78 66.4016 136.862 67.7176 136.862 69.6916V70.3356C136.862 71.3296 137.352 72.1696 138.164 72.7436V75.6836H135.364ZM141.328 67.8856C142.784 67.8856 144.058 68.6416 144.058 69.7896V70.2376C144.058 71.3856 142.784 72.1416 141.328 72.1416C139.872 72.1416 138.598 71.3856 138.598 70.2376V69.7896C138.598 68.6416 139.872 67.8856 141.328 67.8856ZM141.328 73.6256C141.832 73.6256 142.308 73.5696 142.756 73.4716V75.6836H139.9V73.4716C140.348 73.5696 140.824 73.6256 141.328 73.6256ZM149.016 77.7976H150.864V75.9776H149.016V77.7976ZM150.668 74.6196L150.934 66.3876H148.946L149.212 74.6196H150.668Z" fill="white"/>
</svg>
