<svg width="194" height="124" viewBox="0 0 194 124" fill="none" xmlns="http://www.w3.org/2000/svg">
<path d="M23.7234 123.009C31.5156 118.469 32.4647 108.232 31.9652 103.682H52.7138C48.979 117.076 31.8307 122.147 23.7234 123.009Z" fill="#14B390"/>
<rect width="193.283" height="103.682" rx="26" transform="matrix(-1 0 0 1 193.283 0)" fill="#14B390"/>
<path d="M47.3324 33.4316H49.7824C51.4904 33.4316 53.3804 33.3476 54.6964 33.1376L54.5004 31.6256C53.1844 31.8076 51.5324 31.9056 50.2024 31.9056H49.1104V26.4316H53.3524V24.9056H47.3324V33.4316ZM52.6244 29.6796H55.8304V36.8056H57.6084V23.7856H55.8304V28.1536H52.6244V29.6796ZM71.9046 33.0536H73.6686V23.7856H71.9046V27.0896H69.8186V28.6016H71.9046V33.0536ZM67.1586 32.2976H65.3806V36.6656H73.8786V35.1536H67.1586V32.2976ZM63.4766 26.1096H66.0106V27.2016C66.0106 27.8876 65.7306 28.4056 65.2406 28.8396C64.6526 29.3576 63.8126 30.0016 62.9306 30.6036L63.9666 31.9056C64.6666 31.4156 65.2826 30.9396 65.8846 30.4636C66.5286 29.9596 66.9206 29.5816 66.9766 29.4136H66.9906C67.0466 29.5536 67.4106 29.8756 67.9986 30.3096C68.5166 30.6876 69.1186 31.1076 69.7206 31.4996L70.6726 30.2396C69.9726 29.7916 69.2726 29.3156 68.6846 28.8676C67.9426 28.2936 67.7746 27.8876 67.7746 27.2016V26.1096H70.1966V24.5976H63.4766V26.1096ZM77.7308 31.4436V32.8156H84.2268V33.5436H77.8008V36.9456H86.3268V35.5736H79.5088V34.8596H85.9348V31.4436H77.7308ZM85.9348 23.7856H84.1708V30.8556H85.9348V28.0416H87.6428V26.5016H85.9348V23.7856ZM80.3628 23.5476H78.5988V24.7516H75.7288V26.2076H83.1908V24.7516H80.3628V23.5476ZM79.4808 30.8136C81.5808 30.8136 82.5748 29.9456 82.5748 28.9096V28.5176C82.5748 27.4816 81.5808 26.6136 79.4808 26.6136C77.3808 26.6136 76.3868 27.4816 76.3868 28.5176V28.9096C76.3868 29.9456 77.3808 30.8136 79.4808 30.8136ZM79.4808 27.9576C80.4608 27.9576 80.9228 28.3076 80.9228 28.6156V28.8116C80.9228 29.1196 80.4608 29.4696 79.4808 29.4696C78.5008 29.4696 78.0388 29.1196 78.0388 28.8116V28.6156C78.0388 28.3076 78.5008 27.9576 79.4808 27.9576ZM92.237 25.0176V33.3476H97.571V29.8056H98.887V36.1756H100.567V24.0516H98.887V28.2796H97.571V25.0176H92.237ZM103.199 23.7856H101.519V36.8056H103.199V23.7856ZM95.891 31.8636H93.917V26.5016H95.891V31.8636ZM115.549 23.7856H113.771V36.8056H115.549V23.7856ZM110.621 30.3656C109.781 29.4556 109.627 28.8396 109.627 27.7336V24.6956H107.821V27.7336C107.821 28.8816 107.555 29.5676 106.743 30.4636C106.141 31.1216 105.427 31.8216 104.643 32.5216L105.805 33.7256C106.603 32.9836 107.149 32.4516 107.667 31.9056C108.129 31.4296 108.633 30.8556 108.717 30.6036H108.745C108.843 30.8416 109.249 31.3036 109.781 31.8496C110.299 32.3816 110.915 32.9976 111.545 33.5856L112.679 32.3956C111.951 31.7376 111.223 31.0236 110.621 30.3656ZM117.959 26.4176H120.591V27.9016C120.591 29.0636 120.339 29.6516 119.513 30.5756C118.911 31.2336 118.197 31.9336 117.441 32.6056L118.603 33.7956C119.373 33.0816 119.905 32.5496 120.423 32.0036C120.885 31.5276 121.361 30.9816 121.487 30.7156H121.515C121.613 30.9396 122.019 31.4016 122.551 31.9476C123.069 32.4796 123.685 33.0956 124.287 33.6556L125.421 32.4796C124.721 31.8496 123.993 31.1356 123.391 30.4776C122.551 29.5676 122.383 28.9936 122.383 27.9016V26.4176H124.903V24.9056H117.959V26.4176ZM128.291 23.7856H126.513V36.8056H128.291V23.7856ZM140.404 23.7856H138.626V36.8056H140.404V30.0716H142.196V28.5316H140.404V23.7856ZM131.304 34.1176C135.952 31.2756 136.596 30.3376 136.596 27.5096V24.9616H130.604V26.4876H134.818V27.4256C134.818 29.4976 134.58 30.2116 130.366 32.7176L131.304 34.1176ZM45.8193 44.7856H44.0553V51.9676H45.8193V44.7856ZM41.5773 57.9036C42.1093 57.5116 42.7253 56.9936 43.1313 56.6156C43.5793 56.2096 43.8173 55.9716 43.8873 55.7896C43.9713 55.9716 44.2513 56.2796 44.6573 56.6296C45.1333 57.0356 45.7773 57.5536 46.1833 57.8616L47.1353 56.6856C46.6593 56.3356 46.0713 55.8736 45.5813 55.4536C44.8813 54.8516 44.7273 54.5296 44.7273 53.6896V52.5276H42.9913V53.6616C42.9913 54.4596 42.9213 54.7676 42.4453 55.2576C42.2073 55.4956 41.9553 55.7336 41.5773 56.0276C41.1993 55.7336 40.9473 55.4956 40.7093 55.2576C40.2193 54.7536 40.1493 54.4596 40.1493 53.6616V52.5276H38.4133V53.6896C38.4133 54.5156 38.2453 54.8656 37.5733 55.4536C37.0833 55.8736 36.4953 56.3356 36.0193 56.6856L36.9853 57.8896C37.3913 57.5816 38.0213 57.0636 38.4973 56.6576C38.9173 56.3076 39.2253 55.9576 39.2953 55.7896C39.3653 55.9576 39.5753 56.2096 40.0233 56.6156C40.4293 56.9936 41.0453 57.5116 41.5773 57.9036ZM38.7493 51.6176C40.8353 51.6176 42.0813 50.1896 42.0813 48.6356V48.1316C42.0813 46.5776 40.8353 45.1496 38.7493 45.1496C36.6633 45.1496 35.4173 46.5776 35.4173 48.1316V48.6356C35.4173 50.1896 36.6633 51.6176 38.7493 51.6176ZM38.7493 46.6475C39.7993 46.6475 40.4013 47.4596 40.4013 48.1736V48.5936C40.4013 49.3076 39.7993 50.1196 38.7493 50.1196C37.6993 50.1196 37.0973 49.3076 37.0973 48.5936V48.1736C37.0973 47.4596 37.6993 46.6475 38.7493 46.6475ZM58.0715 44.7856H56.2935V57.8056H58.0715V50.8896H59.8635V49.3496H58.0715V44.7856ZM48.3975 54.4316H50.6375C52.3455 54.4316 54.2355 54.3476 55.5515 54.1376L55.3555 52.6256C54.0395 52.8076 52.3875 52.9056 51.0575 52.9056H50.1755V47.4316H54.4175V45.9056H48.3975V54.4316ZM67.1177 45.5556H61.0137V51.9256H67.1177V45.5556ZM65.3677 50.4416H62.7637V47.0396H65.3677V50.4416ZM67.7897 46.6196V48.1176H69.5397V49.3916H67.7897V50.8896H69.5397V54.0536H71.2897V44.7856H69.5397V46.6196H67.7897ZM64.7797 53.2976H63.0017V57.6656H71.4997V56.1536H64.7797V53.2976ZM78.9499 44.9396H77.6059L76.4859 48.1736H78.3899L78.9499 44.9396ZM82.5366 47.7536V50.6236H79.7086V52.0796H82.5366V55.1456H84.1046V52.0796H86.9326V50.6236H84.1046V47.7536H82.5366ZM87.6832 48.3976H89.0272L90.1472 45.1635H88.2432L87.6832 48.3976ZM97.7099 45.8216H95.9599V48.7476H93.1459V45.8216H91.3959V54.4456H97.7099V50.7496H99.9359V57.8056H101.714V44.7856H99.9359V49.2236H97.7099V45.8216ZM93.1459 50.2596H95.9599V52.9616H93.1459V50.2596ZM113.63 45.1916H105.104V51.1136H113.77V49.6856H106.84V48.8456H113.518V47.4456H106.84V46.6196H113.63V45.1916ZM103.466 52.0376V53.4796H115.394V52.0376H103.466ZM106.91 54.1376H105.146V57.6796H113.994V56.1956H106.91V54.1376ZM117.776 52.4296V53.7596H124.762V54.5296H117.846V57.9176H126.848V56.5876H119.554V55.8036H126.47V52.4296H117.776ZM116.208 50.3156V51.6736H128.136V50.3156H116.208ZM122.172 49.6996C124.734 49.6996 126.428 48.8036 126.428 47.4176V47.0816C126.428 45.6956 124.734 44.7996 122.172 44.7996C119.61 44.7996 117.916 45.6956 117.916 47.0816V47.4176C117.916 48.8036 119.61 49.6996 122.172 49.6996ZM122.172 46.1995C124.02 46.1995 124.678 46.7316 124.678 47.1516V47.3476C124.678 47.7676 124.02 48.2996 122.172 48.2996C120.324 48.2996 119.666 47.7676 119.666 47.3476V47.1516C119.666 46.7316 120.324 46.1995 122.172 46.1995ZM132.45 50.0076V51.3656H137.532V52.3736H134.018V53.7036H141.004V54.5016H134.088V57.9176H143.09V56.5876H135.796V55.7756H142.712V52.3736H139.296V51.3656H144.378V50.0076H132.45ZM134.13 45.0096V49.0976H142.67V47.7256H135.894V45.0096H134.13ZM147.685 50.8616H151.605V45.7936H145.935V47.2916H149.855V49.4196H145.935V54.6976H148.539C150.247 54.6976 151.857 54.6276 153.173 54.4316L152.977 52.9476C151.675 53.1156 150.233 53.1996 148.959 53.1996H147.685V50.8616ZM152.389 50.6516H154.405V57.8056H156.183V44.7856H154.405V49.1116H152.389V50.6516ZM43.0731 73.4576V74.7876H50.0591V75.5436H43.1431V78.9176H52.1451V77.5876H44.8511V76.8176H51.7671V73.4576H48.3511V72.5056H53.4331V71.1476H41.5051V72.5056H46.5871V73.4576H43.0731ZM43.0451 67.4516H46.5871V67.5076C46.5871 67.8996 46.3491 68.2356 45.7051 68.4596C44.6551 68.8236 43.5351 69.1596 42.5131 69.4536L42.9891 70.8116C43.9411 70.5316 45.1171 70.1676 46.0551 69.8596C46.8951 69.5796 47.3851 69.3556 47.4831 69.1596H47.4971C47.5951 69.3556 48.0571 69.5516 48.8971 69.8316C49.8351 70.1396 50.9971 70.5036 51.9491 70.7836L52.4111 69.4536C51.3891 69.1596 50.2831 68.8236 49.2331 68.4596C48.5891 68.2356 48.3511 67.8996 48.3511 67.5076V67.4516H51.8931V66.0796H43.0451V67.4516ZM55.8153 73.4296V74.7596H62.8013V75.5296H55.8853V78.9176H64.8873V77.5876H57.5933V76.8036H64.5093V73.4296H55.8153ZM54.2473 71.3156V72.6736H66.1753V71.3156H54.2473ZM60.2113 70.6996C62.7733 70.6996 64.4673 69.8036 64.4673 68.4176V68.0816C64.4673 66.6956 62.7733 65.7996 60.2113 65.7996C57.6493 65.7996 55.9553 66.6956 55.9553 68.0816V68.4176C55.9553 69.8036 57.6493 70.6996 60.2113 70.6996ZM60.2113 67.1995C62.0593 67.1995 62.7173 67.7316 62.7173 68.1516V68.3476C62.7173 68.7676 62.0593 69.2996 60.2113 69.2996C58.3633 69.2996 57.7053 68.7676 57.7053 68.3476V68.1516C57.7053 67.7316 58.3633 67.1995 60.2113 67.1995ZM71.9315 68.6136H75.5575V68.6976C75.5575 69.2996 75.2915 69.6076 74.5075 69.9436C73.5695 70.3496 72.4075 70.7696 71.3155 71.1196L71.9315 72.5616C72.9815 72.2116 73.9475 71.8476 74.8995 71.4696C75.7395 71.1336 76.3135 70.8116 76.4535 70.5456H76.4675C76.6075 70.8116 77.1675 71.1056 78.0075 71.4416C78.9595 71.8196 79.9255 72.1836 80.9755 72.5336L81.5915 71.1196C80.4995 70.7696 79.3375 70.3496 78.3995 69.9436C77.6155 69.6076 77.3495 69.2996 77.3495 68.6976V68.6136H80.9755V67.1156H77.3495V65.5755H75.5575V67.1156H71.9315V68.6136ZM70.4895 73.2476V74.7456H75.5715V78.8056H77.3495V74.7456H82.4175V73.2476H70.4895ZM93.5637 65.7856H91.7857V78.8056H93.5637V72.0716H95.3557V70.5316H93.5637V65.7856ZM84.4637 76.1176C89.1117 73.2756 89.7557 72.3376 89.7557 69.5096V66.9616H83.7637V68.4876H87.9777V69.4256C87.9777 71.4976 87.7397 72.2116 83.5257 74.7176L84.4637 76.1176ZM104.626 66.0516H102.946V78.1756H104.626V72.0156H105.732V78.8056H107.412V65.7856H105.732V70.4896H104.626V66.0516ZM99.2499 75.5856C101.126 75.5856 102.148 74.3116 102.148 73.0516V72.3796C102.148 71.1196 101.126 69.8456 99.2499 69.8456C97.3739 69.8456 96.3519 71.1196 96.3519 72.3796V73.0516C96.3519 74.3116 97.3739 75.5856 99.2499 75.5856ZM95.9039 67.8856V69.3416H102.302V67.8856H100.09V66.1496H98.3679V67.8856H95.9039ZM99.2499 71.2596C100.16 71.2596 100.608 71.9596 100.608 72.4776V72.9536C100.608 73.4716 100.16 74.1716 99.2499 74.1716C98.3399 74.1716 97.8919 73.4716 97.8919 72.9536V72.4776C97.8919 71.9596 98.3399 71.2596 99.2499 71.2596ZM119.034 73.5416V66.6815H117.27V68.7676H112.09V66.6815H110.326V73.5416H113.798V75.6696H108.716V77.1676H120.644V75.6696H115.562V73.5416H119.034ZM112.09 72.0576V70.2656H117.27V72.0576H112.09ZM128.486 78.1756H130.166V66.0516H128.486V69.8176H126.736V71.3576H128.486V78.1756ZM123.768 69.9576C123.768 71.0776 123.572 71.6236 122.914 72.4636C122.382 73.1356 121.682 73.8916 121.08 74.4796L122.27 75.6276C122.9 75.0116 123.614 74.2136 123.992 73.7796C124.342 73.3736 124.65 72.9396 124.72 72.7436H124.734C124.818 72.9396 125.042 73.2336 125.462 73.7236C125.882 74.2136 126.414 74.7876 127.016 75.4036L128.178 74.3256C127.534 73.6816 126.876 72.9676 126.358 72.3236C125.77 71.5956 125.518 71.0216 125.518 69.9576V66.8216H123.768V69.9576ZM132.812 65.7856H131.132V78.8056H132.812V65.7856ZM134.2 75.6836V77.1676H146.128V75.6836H143.328V72.7436C144.14 72.1696 144.63 71.3436 144.63 70.3356V69.6916C144.63 67.7176 142.712 66.4016 140.164 66.4016C137.616 66.4016 135.698 67.7176 135.698 69.6916V70.3356C135.698 71.3296 136.188 72.1696 137 72.7436V75.6836H134.2ZM140.164 67.8856C141.62 67.8856 142.894 68.6416 142.894 69.7896V70.2376C142.894 71.3856 141.62 72.1416 140.164 72.1416C138.708 72.1416 137.434 71.3856 137.434 70.2376V69.7896C137.434 68.6416 138.708 67.8856 140.164 67.8856ZM140.164 73.6256C140.668 73.6256 141.144 73.5696 141.592 73.4716V75.6836H138.736V73.4716C139.184 73.5696 139.66 73.6256 140.164 73.6256ZM147.853 77.7976H149.701V75.9776H147.853V77.7976ZM149.505 74.6196L149.771 66.3876H147.783L148.049 74.6196H149.505Z" fill="white"/>
</svg>
