<svg width="34" height="34" viewBox="0 0 34 34" fill="none" xmlns="http://www.w3.org/2000/svg">
<circle cx="17" cy="17" r="17" fill="#D6EEE8"/>
<path d="M16.5 8.4903V6.54504C16.5 6.056 15.9262 5.81692 15.5969 6.16468L12.6219 9.19668C12.4094 9.41403 12.4094 9.75092 12.6219 9.96826L15.5863 13.0003C15.9263 13.3372 16.5 13.0981 16.5 12.609V10.6638C20.0169 10.6638 22.875 13.5871 22.875 17.1842C22.875 18.0427 22.7156 18.8795 22.4075 19.6294C22.2481 20.0206 22.365 20.4662 22.6519 20.7596C23.1938 21.3138 24.1075 21.1182 24.3944 20.3901C24.7875 19.4012 25 18.3144 25 17.1842C25 12.3808 21.1962 8.4903 16.5 8.4903ZM16.5 23.7046C12.9831 23.7046 10.125 20.7813 10.125 17.1842C10.125 16.3257 10.2844 15.4889 10.5925 14.739C10.7519 14.3478 10.635 13.9023 10.3481 13.6088C9.80625 13.0546 8.8925 13.2502 8.60563 13.9783C8.2125 14.9673 8 16.054 8 17.1842C8 21.9876 11.8038 25.8781 16.5 25.8781V27.8234C16.5 28.3124 17.0738 28.5515 17.4031 28.2037L20.3675 25.1717C20.58 24.9544 20.58 24.6175 20.3675 24.4002L17.4031 21.3682C17.3282 21.2931 17.2333 21.2423 17.1302 21.2223C17.0272 21.2023 16.9206 21.214 16.8241 21.2558C16.7275 21.2977 16.6452 21.3678 16.5875 21.4574C16.5298 21.547 16.4994 21.6521 16.5 21.7594V23.7046Z" fill="#14B390"/>
</svg>
