<svg width="213" height="110" viewBox="0 0 213 110" fill="none" xmlns="http://www.w3.org/2000/svg">
<path d="M26.1084 109.009C34.6841 104.986 35.7286 95.9142 35.1789 91.8813H58.0136C53.9034 103.751 35.0309 108.245 26.1084 109.009Z" fill="#14B390"/>
<rect width="212.717" height="91.8814" rx="26" transform="matrix(-1 0 0 1 212.717 0)" fill="#14B390"/>
<path d="M79.5033 29.032H77.7533V31.958H74.9393V29.032H73.1893V37.656H79.5033V33.96H81.7293V41.016H83.5073V27.996H81.7293V32.434H79.5033V29.032ZM74.9393 33.47H77.7533V36.172H74.9393V33.47ZM95.4235 28.402H86.8975V34.324H95.5635V32.896H88.6335V32.056H95.3115V30.656H88.6335V29.83H95.4235V28.402ZM85.2595 35.248V36.69H97.1875V35.248H85.2595ZM88.7035 37.348H86.9395V40.89H95.7875V39.406H88.7035V37.348ZM99.5697 35.64V36.97H106.556V37.74H99.6397V41.128H108.642V39.798H101.348V39.014H108.264V35.64H99.5697ZM98.0017 33.526V34.884H109.93V33.526H98.0017ZM103.966 32.91C106.528 32.91 108.222 32.014 108.222 30.628V30.292C108.222 28.906 106.528 28.01 103.966 28.01C101.404 28.01 99.7097 28.906 99.7097 30.292V30.628C99.7097 32.014 101.404 32.91 103.966 32.91ZM103.966 29.41C105.814 29.41 106.472 29.942 106.472 30.362V30.558C106.472 30.978 105.814 31.51 103.966 31.51C102.118 31.51 101.46 30.978 101.46 30.558V30.362C101.46 29.942 102.118 29.41 103.966 29.41ZM114.244 33.218V34.576H119.326V35.584H115.812V36.914H122.798V37.712H115.882V41.128H124.884V39.798H117.59V38.986H124.506V35.584H121.09V34.576H126.172V33.218H114.244ZM115.924 28.22V32.308H124.464V30.936H117.688V28.22H115.924ZM129.478 34.072H133.398V29.004H127.728V30.502H131.648V32.63H127.728V37.908H130.332C132.04 37.908 133.65 37.838 134.966 37.642L134.77 36.158C133.468 36.326 132.026 36.41 130.752 36.41H129.478V34.072ZM134.182 33.862H136.198V41.016H137.976V27.996H136.198V32.322H134.182V33.862ZM34.2595 48.996H32.4815V62.016H34.2595V55.1H36.0515V53.56H34.2595V48.996ZM24.5855 58.642H26.8255C28.5335 58.642 30.4235 58.558 31.7395 58.348L31.5435 56.836C30.2275 57.018 28.5755 57.116 27.2455 57.116H26.3635V51.642H30.6055V50.116H24.5855V58.642ZM40.1697 55.982C42.2697 55.982 43.4737 54.54 43.4737 53.028V52.412C43.4737 50.9 42.2697 49.458 40.1697 49.458C38.0697 49.458 36.8657 50.9 36.8657 52.412V53.028C36.8657 54.54 38.0697 55.982 40.1697 55.982ZM40.1697 50.97C41.2197 50.97 41.7937 51.74 41.7937 52.454V52.986C41.7937 53.7 41.2197 54.47 40.1697 54.47C39.1197 54.47 38.5457 53.7 38.5457 52.986V52.454C38.5457 51.74 39.1197 50.97 40.1697 50.97ZM42.9417 62.408C45.3217 62.408 46.9317 61.372 46.9317 59.874V59.286C46.9317 57.788 45.3217 56.752 42.9417 56.752C40.5617 56.752 38.9517 57.788 38.9517 59.286V59.874C38.9517 61.372 40.5617 62.408 42.9417 62.408ZM42.9417 58.194C44.3557 58.194 45.1957 58.852 45.1957 59.398V59.762C45.1957 60.308 44.3557 60.966 42.9417 60.966C41.5277 60.966 40.6877 60.308 40.6877 59.762V59.398C40.6877 58.852 41.5277 58.194 42.9417 58.194ZM46.8897 48.996H45.1397V56.696H46.8897V54.862H48.5697V53.35H46.8897V52.272H48.5697V50.76H46.8897V48.996ZM59.7439 48.996H57.9799V58.432H59.7439V54.302H61.4519V52.762H59.7439V48.996ZM53.4159 58.264H51.6379V61.89H60.0519V60.378H53.4159V58.264ZM54.1859 48.884H52.4219V50.298H49.5519V51.796H56.9999V50.298H54.1859V48.884ZM53.3039 57.494C55.2639 57.494 56.4119 56.416 56.4119 55.156V54.624C56.4119 53.364 55.2639 52.286 53.3039 52.286C51.3439 52.286 50.1959 53.364 50.1959 54.624V55.156C50.1959 56.416 51.3439 57.494 53.3039 57.494ZM53.3039 53.672C54.2419 53.672 54.7459 54.246 54.7459 54.722V55.058C54.7459 55.534 54.2419 56.108 53.3039 56.108C52.3659 56.108 51.8619 55.534 51.8619 55.058V54.722C51.8619 54.246 52.3659 53.672 53.3039 53.672ZM71.254 49.836H66.004V56.122H71.254V53.658H72.542V57.942H74.208V49.164H72.542V52.146H71.254V49.836ZM69.91 57.536H68.132V61.876H76.952V60.364H69.91V57.536ZM76.756 48.996H75.076V58.25H76.756V48.996ZM69.588 54.666H67.67V51.292H69.588V54.666ZM78.3962 58.88V60.378H90.3242V58.88H78.3962ZM88.7982 55.618H81.6862V54.274H88.5462V52.79H81.6862V51.446H88.6582V49.962H79.9362V57.102H88.7982V55.618ZM101.694 57.13V55.646H94.4984V54.26H101.4V49.92H92.6924V51.404H99.6364V52.79H92.7344V57.13H96.2204V58.894H91.1384V60.378H103.066V58.894H97.9844V57.13H101.694ZM111.679 57.62H109.901V61.876H118.399V60.364H111.679V57.62ZM114.101 49.626H112.379V51.67H109.649V49.626H107.927V56.36H114.101V49.626ZM109.649 53.154H112.379V54.876H109.649V53.154ZM114.745 50.886V52.384H116.439V53.658H114.745V55.156H116.439V58.264H118.189V48.996H116.439V50.886H114.745ZM126.899 62.408C129.209 62.408 130.973 61.47 130.973 59.888V59.272C130.973 57.69 129.209 56.752 126.899 56.752C124.589 56.752 122.825 57.69 122.825 59.272V59.888C122.825 61.47 124.589 62.408 126.899 62.408ZM126.899 58.194C128.117 58.194 129.237 58.74 129.237 59.398V59.762C129.237 60.42 128.117 60.966 126.899 60.966C125.681 60.966 124.561 60.42 124.561 59.762V59.398C124.561 58.74 125.681 58.194 126.899 58.194ZM127.221 50.802V52.286H129.181V53.518H126.997V55.002H129.181V56.696H130.931V48.996H129.181V50.802H127.221ZM121.005 56.976C125.471 55.086 126.563 54.26 126.563 52.034V49.766H120.851V51.264H124.799V51.866C124.799 53.35 124.253 53.854 120.291 55.534L121.005 56.976ZM141.517 49.262H139.837V61.386H141.517V55.226H142.623V62.016H144.303V48.996H142.623V53.7H141.517V49.262ZM136.141 58.796C138.017 58.796 139.039 57.522 139.039 56.262V55.59C139.039 54.33 138.017 53.056 136.141 53.056C134.265 53.056 133.243 54.33 133.243 55.59V56.262C133.243 57.522 134.265 58.796 136.141 58.796ZM132.795 51.096V52.552H139.193V51.096H136.981V49.36H135.259V51.096H132.795ZM136.141 54.47C137.051 54.47 137.499 55.17 137.499 55.688V56.164C137.499 56.682 137.051 57.382 136.141 57.382C135.231 57.382 134.783 56.682 134.783 56.164V55.688C134.783 55.17 135.231 54.47 136.141 54.47ZM155.925 56.752V49.892H154.161V51.978H148.981V49.892H147.217V56.752H150.689V58.88H145.607V60.378H157.535V58.88H152.453V56.752H155.925ZM148.981 55.268V53.476H154.161V55.268H148.981ZM165.377 61.386H167.057V49.262H165.377V53.028H163.627V54.568H165.377V61.386ZM160.659 53.168C160.659 54.288 160.463 54.834 159.805 55.674C159.273 56.346 158.573 57.102 157.971 57.69L159.161 58.838C159.791 58.222 160.505 57.424 160.883 56.99C161.233 56.584 161.541 56.15 161.611 55.954H161.625C161.709 56.15 161.933 56.444 162.353 56.934C162.773 57.424 163.305 57.998 163.907 58.614L165.069 57.536C164.425 56.892 163.767 56.178 163.249 55.534C162.661 54.806 162.409 54.232 162.409 53.168V50.032H160.659V53.168ZM169.703 48.996H168.023V62.016H169.703V48.996ZM171.092 58.894V60.378H183.02V58.894H180.22V55.954C181.032 55.38 181.522 54.554 181.522 53.546V52.902C181.522 50.928 179.604 49.612 177.056 49.612C174.508 49.612 172.59 50.928 172.59 52.902V53.546C172.59 54.54 173.08 55.38 173.892 55.954V58.894H171.092ZM177.056 51.096C178.512 51.096 179.786 51.852 179.786 53V53.448C179.786 54.596 178.512 55.352 177.056 55.352C175.6 55.352 174.326 54.596 174.326 53.448V53C174.326 51.852 175.6 51.096 177.056 51.096ZM177.056 56.836C177.56 56.836 178.036 56.78 178.484 56.682V58.894H175.628V56.682C176.076 56.78 176.552 56.836 177.056 56.836ZM184.744 61.008H186.592V59.188H184.744V61.008ZM186.396 57.83L186.662 49.598H184.674L184.94 57.83H186.396Z" fill="white"/>
</svg>
