<svg width="13" height="13" viewBox="0 0 13 13" fill="none" xmlns="http://www.w3.org/2000/svg">
<circle cx="6.40011" cy="6.40011" r="6.40011" fill="#BEE7DD"/>
<path d="M4.10071 4.10071C4.13255 4.06878 4.17038 4.04346 4.21202 4.02618C4.25367 4.00889 4.29831 4 4.3434 4C4.38849 4 4.43314 4.00889 4.47478 4.02618C4.51643 4.04346 4.55425 4.06878 4.5861 4.10071L6.40013 5.91543L8.21417 4.10071C8.24604 4.06884 8.28387 4.04355 8.32552 4.02631C8.36716 4.00906 8.41179 4.00018 8.45686 4.00018C8.50193 4.00018 8.54657 4.00906 8.58821 4.02631C8.62985 4.04355 8.66768 4.06884 8.69956 4.10071C8.73143 4.13258 8.75671 4.17041 8.77396 4.21206C8.79121 4.2537 8.80008 4.29833 8.80008 4.3434C8.80008 4.38847 8.79121 4.4331 8.77396 4.47475C8.75671 4.51639 8.73143 4.55422 8.69956 4.5861L6.88483 6.40013L8.69956 8.21417C8.73143 8.24604 8.75671 8.28387 8.77396 8.32552C8.79121 8.36716 8.80008 8.41179 8.80008 8.45686C8.80008 8.50193 8.79121 8.54657 8.77396 8.58821C8.75671 8.62985 8.73143 8.66768 8.69956 8.69956C8.66768 8.73143 8.62985 8.75671 8.58821 8.77396C8.54657 8.79121 8.50193 8.80008 8.45686 8.80008C8.41179 8.80008 8.36716 8.79121 8.32552 8.77396C8.28387 8.75671 8.24604 8.73143 8.21417 8.69956L6.40013 6.88483L4.5861 8.69956C4.55422 8.73143 4.51639 8.75671 4.47475 8.77396C4.4331 8.79121 4.38847 8.80008 4.3434 8.80008C4.29833 8.80008 4.2537 8.79121 4.21206 8.77396C4.17041 8.75671 4.13258 8.73143 4.10071 8.69956C4.06884 8.66768 4.04355 8.62985 4.02631 8.58821C4.00906 8.54657 4.00018 8.50193 4.00018 8.45686C4.00018 8.41179 4.00906 8.36716 4.02631 8.32552C4.04355 8.28387 4.06884 8.24604 4.10071 8.21417L5.91543 6.40013L4.10071 4.5861C4.06878 4.55425 4.04346 4.51643 4.02618 4.47478C4.00889 4.43314 4 4.38849 4 4.3434C4 4.29831 4.00889 4.25367 4.02618 4.21202C4.04346 4.17038 4.06878 4.13255 4.10071 4.10071Z" fill="#14B390"/>
</svg>
